<mxfile host="app.diagrams.net" modified="2021-05-12T21:02:56.637Z" agent="5.0 (Windows NT 10.0; Win64; x64) AppleWebKit/537.36 (KHTML, like Gecko) Chrome/90.0.4430.93 Safari/537.36 Edg/90.0.818.51" etag="jYH5Gn9RhJMktLY0IShT" version="14.6.12" type="github">
  <diagram id="WdUzMKbhOJTNXHBL82K2" name="Page-1">
    <mxGraphModel dx="1422" dy="794" grid="1" gridSize="10" guides="1" tooltips="1" connect="1" arrows="1" fold="1" page="1" pageScale="1" pageWidth="850" pageHeight="1100" math="0" shadow="0">
      <root>
        <mxCell id="0" />
        <mxCell id="1" parent="0" />
        <mxCell id="PCMY5emXgMbDtx15MJKR-9" value="orders" style="shape=table;html=1;whiteSpace=wrap;startSize=30;container=1;collapsible=0;childLayout=tableLayout;fixedRows=1;rowLines=0;fontStyle=1;align=center;" parent="1" vertex="1">
          <mxGeometry x="180" y="530" width="320" height="210" as="geometry" />
        </mxCell>
        <mxCell id="PCMY5emXgMbDtx15MJKR-10" value="" style="shape=partialRectangle;html=1;whiteSpace=wrap;collapsible=0;dropTarget=0;pointerEvents=0;fillColor=none;top=0;left=0;bottom=1;right=0;points=[[0,0.5],[1,0.5]];portConstraint=eastwest;" parent="PCMY5emXgMbDtx15MJKR-9" vertex="1">
          <mxGeometry y="30" width="320" height="30" as="geometry" />
        </mxCell>
        <mxCell id="PCMY5emXgMbDtx15MJKR-11" value="pk" style="shape=partialRectangle;html=1;whiteSpace=wrap;connectable=0;fillColor=none;top=0;left=0;bottom=0;right=0;overflow=hidden;" parent="PCMY5emXgMbDtx15MJKR-10" vertex="1">
          <mxGeometry width="40" height="30" as="geometry" />
        </mxCell>
        <mxCell id="PCMY5emXgMbDtx15MJKR-12" value="order_id" style="shape=partialRectangle;html=1;whiteSpace=wrap;connectable=0;fillColor=none;top=0;left=0;bottom=0;right=0;align=left;spacingLeft=6;overflow=hidden;" parent="PCMY5emXgMbDtx15MJKR-10" vertex="1">
          <mxGeometry x="40" width="140" height="30" as="geometry" />
        </mxCell>
        <mxCell id="PCMY5emXgMbDtx15MJKR-66" value="int" style="shape=partialRectangle;html=1;whiteSpace=wrap;connectable=0;fillColor=none;top=0;left=0;bottom=0;right=0;align=left;spacingLeft=6;overflow=hidden;" parent="PCMY5emXgMbDtx15MJKR-10" vertex="1">
          <mxGeometry x="180" width="140" height="30" as="geometry" />
        </mxCell>
        <mxCell id="PCMY5emXgMbDtx15MJKR-13" value="" style="shape=partialRectangle;html=1;whiteSpace=wrap;collapsible=0;dropTarget=0;pointerEvents=0;fillColor=none;top=0;left=0;bottom=0;right=0;points=[[0,0.5],[1,0.5]];portConstraint=eastwest;" parent="PCMY5emXgMbDtx15MJKR-9" vertex="1">
          <mxGeometry y="60" width="320" height="30" as="geometry" />
        </mxCell>
        <mxCell id="PCMY5emXgMbDtx15MJKR-14" value="fk" style="shape=partialRectangle;html=1;whiteSpace=wrap;connectable=0;fillColor=none;top=0;left=0;bottom=0;right=0;overflow=hidden;" parent="PCMY5emXgMbDtx15MJKR-13" vertex="1">
          <mxGeometry width="40" height="30" as="geometry" />
        </mxCell>
        <mxCell id="PCMY5emXgMbDtx15MJKR-15" value="customer_id" style="shape=partialRectangle;html=1;whiteSpace=wrap;connectable=0;fillColor=none;top=0;left=0;bottom=0;right=0;align=left;spacingLeft=6;overflow=hidden;" parent="PCMY5emXgMbDtx15MJKR-13" vertex="1">
          <mxGeometry x="40" width="140" height="30" as="geometry" />
        </mxCell>
        <mxCell id="PCMY5emXgMbDtx15MJKR-67" value="int" style="shape=partialRectangle;html=1;whiteSpace=wrap;connectable=0;fillColor=none;top=0;left=0;bottom=0;right=0;align=left;spacingLeft=6;overflow=hidden;" parent="PCMY5emXgMbDtx15MJKR-13" vertex="1">
          <mxGeometry x="180" width="140" height="30" as="geometry" />
        </mxCell>
        <mxCell id="PCMY5emXgMbDtx15MJKR-16" value="" style="shape=partialRectangle;html=1;whiteSpace=wrap;collapsible=0;dropTarget=0;pointerEvents=0;fillColor=none;top=0;left=0;bottom=0;right=0;points=[[0,0.5],[1,0.5]];portConstraint=eastwest;" parent="PCMY5emXgMbDtx15MJKR-9" vertex="1">
          <mxGeometry y="90" width="320" height="30" as="geometry" />
        </mxCell>
        <mxCell id="PCMY5emXgMbDtx15MJKR-17" value="fk" style="shape=partialRectangle;html=1;whiteSpace=wrap;connectable=0;fillColor=none;top=0;left=0;bottom=0;right=0;overflow=hidden;" parent="PCMY5emXgMbDtx15MJKR-16" vertex="1">
          <mxGeometry width="40" height="30" as="geometry" />
        </mxCell>
        <mxCell id="PCMY5emXgMbDtx15MJKR-18" value="po_id" style="shape=partialRectangle;html=1;whiteSpace=wrap;connectable=0;fillColor=none;top=0;left=0;bottom=0;right=0;align=left;spacingLeft=6;overflow=hidden;" parent="PCMY5emXgMbDtx15MJKR-16" vertex="1">
          <mxGeometry x="40" width="140" height="30" as="geometry" />
        </mxCell>
        <mxCell id="PCMY5emXgMbDtx15MJKR-68" value="int" style="shape=partialRectangle;html=1;whiteSpace=wrap;connectable=0;fillColor=none;top=0;left=0;bottom=0;right=0;align=left;spacingLeft=6;overflow=hidden;" parent="PCMY5emXgMbDtx15MJKR-16" vertex="1">
          <mxGeometry x="180" width="140" height="30" as="geometry" />
        </mxCell>
        <mxCell id="PCMY5emXgMbDtx15MJKR-48" style="shape=partialRectangle;html=1;whiteSpace=wrap;collapsible=0;dropTarget=0;pointerEvents=0;fillColor=none;top=0;left=0;bottom=0;right=0;points=[[0,0.5],[1,0.5]];portConstraint=eastwest;" parent="PCMY5emXgMbDtx15MJKR-9" vertex="1">
          <mxGeometry y="120" width="320" height="30" as="geometry" />
        </mxCell>
        <mxCell id="PCMY5emXgMbDtx15MJKR-49" style="shape=partialRectangle;html=1;whiteSpace=wrap;connectable=0;fillColor=none;top=0;left=0;bottom=0;right=0;overflow=hidden;" parent="PCMY5emXgMbDtx15MJKR-48" vertex="1">
          <mxGeometry width="40" height="30" as="geometry" />
        </mxCell>
        <mxCell id="PCMY5emXgMbDtx15MJKR-50" value="date_placed" style="shape=partialRectangle;html=1;whiteSpace=wrap;connectable=0;fillColor=none;top=0;left=0;bottom=0;right=0;align=left;spacingLeft=6;overflow=hidden;" parent="PCMY5emXgMbDtx15MJKR-48" vertex="1">
          <mxGeometry x="40" width="140" height="30" as="geometry" />
        </mxCell>
        <mxCell id="PCMY5emXgMbDtx15MJKR-69" value="DATE" style="shape=partialRectangle;html=1;whiteSpace=wrap;connectable=0;fillColor=none;top=0;left=0;bottom=0;right=0;align=left;spacingLeft=6;overflow=hidden;" parent="PCMY5emXgMbDtx15MJKR-48" vertex="1">
          <mxGeometry x="180" width="140" height="30" as="geometry" />
        </mxCell>
        <mxCell id="PCMY5emXgMbDtx15MJKR-74" style="shape=partialRectangle;html=1;whiteSpace=wrap;collapsible=0;dropTarget=0;pointerEvents=0;fillColor=none;top=0;left=0;bottom=0;right=0;points=[[0,0.5],[1,0.5]];portConstraint=eastwest;" parent="PCMY5emXgMbDtx15MJKR-9" vertex="1">
          <mxGeometry y="150" width="320" height="30" as="geometry" />
        </mxCell>
        <mxCell id="PCMY5emXgMbDtx15MJKR-75" style="shape=partialRectangle;html=1;whiteSpace=wrap;connectable=0;fillColor=none;top=0;left=0;bottom=0;right=0;overflow=hidden;" parent="PCMY5emXgMbDtx15MJKR-74" vertex="1">
          <mxGeometry width="40" height="30" as="geometry" />
        </mxCell>
        <mxCell id="PCMY5emXgMbDtx15MJKR-76" value="status" style="shape=partialRectangle;html=1;whiteSpace=wrap;connectable=0;fillColor=none;top=0;left=0;bottom=0;right=0;align=left;spacingLeft=6;overflow=hidden;" parent="PCMY5emXgMbDtx15MJKR-74" vertex="1">
          <mxGeometry x="40" width="140" height="30" as="geometry" />
        </mxCell>
        <mxCell id="PCMY5emXgMbDtx15MJKR-77" value="&lt;span&gt;varchar(25)&lt;/span&gt;" style="shape=partialRectangle;html=1;whiteSpace=wrap;connectable=0;fillColor=none;top=0;left=0;bottom=0;right=0;align=left;spacingLeft=6;overflow=hidden;" parent="PCMY5emXgMbDtx15MJKR-74" vertex="1">
          <mxGeometry x="180" width="140" height="30" as="geometry" />
        </mxCell>
        <mxCell id="PCMY5emXgMbDtx15MJKR-19" value="customer" style="shape=table;html=1;whiteSpace=wrap;startSize=30;container=1;collapsible=0;childLayout=tableLayout;fixedRows=1;rowLines=0;fontStyle=1;align=center;" parent="1" vertex="1">
          <mxGeometry x="90" y="260" width="180" height="210" as="geometry" />
        </mxCell>
        <mxCell id="PCMY5emXgMbDtx15MJKR-20" value="" style="shape=partialRectangle;html=1;whiteSpace=wrap;collapsible=0;dropTarget=0;pointerEvents=0;fillColor=none;top=0;left=0;bottom=1;right=0;points=[[0,0.5],[1,0.5]];portConstraint=eastwest;" parent="PCMY5emXgMbDtx15MJKR-19" vertex="1">
          <mxGeometry y="30" width="180" height="30" as="geometry" />
        </mxCell>
        <mxCell id="PCMY5emXgMbDtx15MJKR-21" value="pk" style="shape=partialRectangle;html=1;whiteSpace=wrap;connectable=0;fillColor=none;top=0;left=0;bottom=0;right=0;overflow=hidden;" parent="PCMY5emXgMbDtx15MJKR-20" vertex="1">
          <mxGeometry width="23" height="30" as="geometry" />
        </mxCell>
        <mxCell id="PCMY5emXgMbDtx15MJKR-22" value="customer_id" style="shape=partialRectangle;html=1;whiteSpace=wrap;connectable=0;fillColor=none;top=0;left=0;bottom=0;right=0;align=left;spacingLeft=6;overflow=hidden;" parent="PCMY5emXgMbDtx15MJKR-20" vertex="1">
          <mxGeometry x="23" width="85" height="30" as="geometry" />
        </mxCell>
        <mxCell id="PCMY5emXgMbDtx15MJKR-59" value="int" style="shape=partialRectangle;html=1;whiteSpace=wrap;connectable=0;fillColor=none;top=0;left=0;bottom=0;right=0;align=left;spacingLeft=6;overflow=hidden;" parent="PCMY5emXgMbDtx15MJKR-20" vertex="1">
          <mxGeometry x="108" width="72" height="30" as="geometry" />
        </mxCell>
        <mxCell id="PCMY5emXgMbDtx15MJKR-23" value="" style="shape=partialRectangle;html=1;whiteSpace=wrap;collapsible=0;dropTarget=0;pointerEvents=0;fillColor=none;top=0;left=0;bottom=0;right=0;points=[[0,0.5],[1,0.5]];portConstraint=eastwest;" parent="PCMY5emXgMbDtx15MJKR-19" vertex="1">
          <mxGeometry y="60" width="180" height="30" as="geometry" />
        </mxCell>
        <mxCell id="PCMY5emXgMbDtx15MJKR-24" value="" style="shape=partialRectangle;html=1;whiteSpace=wrap;connectable=0;fillColor=none;top=0;left=0;bottom=0;right=0;overflow=hidden;" parent="PCMY5emXgMbDtx15MJKR-23" vertex="1">
          <mxGeometry width="23" height="30" as="geometry" />
        </mxCell>
        <mxCell id="PCMY5emXgMbDtx15MJKR-25" value="first_name" style="shape=partialRectangle;html=1;whiteSpace=wrap;connectable=0;fillColor=none;top=0;left=0;bottom=0;right=0;align=left;spacingLeft=6;overflow=hidden;" parent="PCMY5emXgMbDtx15MJKR-23" vertex="1">
          <mxGeometry x="23" width="85" height="30" as="geometry" />
        </mxCell>
        <mxCell id="PCMY5emXgMbDtx15MJKR-60" value="varchar(50)" style="shape=partialRectangle;html=1;whiteSpace=wrap;connectable=0;fillColor=none;top=0;left=0;bottom=0;right=0;align=left;spacingLeft=6;overflow=hidden;" parent="PCMY5emXgMbDtx15MJKR-23" vertex="1">
          <mxGeometry x="108" width="72" height="30" as="geometry" />
        </mxCell>
        <mxCell id="PCMY5emXgMbDtx15MJKR-26" value="" style="shape=partialRectangle;html=1;whiteSpace=wrap;collapsible=0;dropTarget=0;pointerEvents=0;fillColor=none;top=0;left=0;bottom=0;right=0;points=[[0,0.5],[1,0.5]];portConstraint=eastwest;" parent="PCMY5emXgMbDtx15MJKR-19" vertex="1">
          <mxGeometry y="90" width="180" height="30" as="geometry" />
        </mxCell>
        <mxCell id="PCMY5emXgMbDtx15MJKR-27" value="" style="shape=partialRectangle;html=1;whiteSpace=wrap;connectable=0;fillColor=none;top=0;left=0;bottom=0;right=0;overflow=hidden;" parent="PCMY5emXgMbDtx15MJKR-26" vertex="1">
          <mxGeometry width="23" height="30" as="geometry" />
        </mxCell>
        <mxCell id="PCMY5emXgMbDtx15MJKR-28" value="last_name" style="shape=partialRectangle;html=1;whiteSpace=wrap;connectable=0;fillColor=none;top=0;left=0;bottom=0;right=0;align=left;spacingLeft=6;overflow=hidden;" parent="PCMY5emXgMbDtx15MJKR-26" vertex="1">
          <mxGeometry x="23" width="85" height="30" as="geometry" />
        </mxCell>
        <mxCell id="PCMY5emXgMbDtx15MJKR-61" style="shape=partialRectangle;html=1;whiteSpace=wrap;connectable=0;fillColor=none;top=0;left=0;bottom=0;right=0;align=left;spacingLeft=6;overflow=hidden;" parent="PCMY5emXgMbDtx15MJKR-26" vertex="1">
          <mxGeometry x="108" width="72" height="30" as="geometry" />
        </mxCell>
        <mxCell id="PCMY5emXgMbDtx15MJKR-56" style="shape=partialRectangle;html=1;whiteSpace=wrap;collapsible=0;dropTarget=0;pointerEvents=0;fillColor=none;top=0;left=0;bottom=0;right=0;points=[[0,0.5],[1,0.5]];portConstraint=eastwest;" parent="PCMY5emXgMbDtx15MJKR-19" vertex="1">
          <mxGeometry y="120" width="180" height="30" as="geometry" />
        </mxCell>
        <mxCell id="PCMY5emXgMbDtx15MJKR-57" style="shape=partialRectangle;html=1;whiteSpace=wrap;connectable=0;fillColor=none;top=0;left=0;bottom=0;right=0;overflow=hidden;" parent="PCMY5emXgMbDtx15MJKR-56" vertex="1">
          <mxGeometry width="23" height="30" as="geometry" />
        </mxCell>
        <mxCell id="PCMY5emXgMbDtx15MJKR-58" value="email" style="shape=partialRectangle;html=1;whiteSpace=wrap;connectable=0;fillColor=none;top=0;left=0;bottom=0;right=0;align=left;spacingLeft=6;overflow=hidden;" parent="PCMY5emXgMbDtx15MJKR-56" vertex="1">
          <mxGeometry x="23" width="85" height="30" as="geometry" />
        </mxCell>
        <mxCell id="PCMY5emXgMbDtx15MJKR-62" value="&lt;span&gt;varchar(50)&lt;/span&gt;" style="shape=partialRectangle;html=1;whiteSpace=wrap;connectable=0;fillColor=none;top=0;left=0;bottom=0;right=0;align=left;spacingLeft=6;overflow=hidden;" parent="PCMY5emXgMbDtx15MJKR-56" vertex="1">
          <mxGeometry x="108" width="72" height="30" as="geometry" />
        </mxCell>
        <mxCell id="PCMY5emXgMbDtx15MJKR-53" style="shape=partialRectangle;html=1;whiteSpace=wrap;collapsible=0;dropTarget=0;pointerEvents=0;fillColor=none;top=0;left=0;bottom=0;right=0;points=[[0,0.5],[1,0.5]];portConstraint=eastwest;" parent="PCMY5emXgMbDtx15MJKR-19" vertex="1">
          <mxGeometry y="150" width="180" height="30" as="geometry" />
        </mxCell>
        <mxCell id="PCMY5emXgMbDtx15MJKR-54" style="shape=partialRectangle;html=1;whiteSpace=wrap;connectable=0;fillColor=none;top=0;left=0;bottom=0;right=0;overflow=hidden;" parent="PCMY5emXgMbDtx15MJKR-53" vertex="1">
          <mxGeometry width="23" height="30" as="geometry" />
        </mxCell>
        <mxCell id="PCMY5emXgMbDtx15MJKR-55" value="phone" style="shape=partialRectangle;html=1;whiteSpace=wrap;connectable=0;fillColor=none;top=0;left=0;bottom=0;right=0;align=left;spacingLeft=6;overflow=hidden;" parent="PCMY5emXgMbDtx15MJKR-53" vertex="1">
          <mxGeometry x="23" width="85" height="30" as="geometry" />
        </mxCell>
        <mxCell id="PCMY5emXgMbDtx15MJKR-63" value="&lt;span&gt;varchar(50)&lt;/span&gt;" style="shape=partialRectangle;html=1;whiteSpace=wrap;connectable=0;fillColor=none;top=0;left=0;bottom=0;right=0;align=left;spacingLeft=6;overflow=hidden;" parent="PCMY5emXgMbDtx15MJKR-53" vertex="1">
          <mxGeometry x="108" width="72" height="30" as="geometry" />
        </mxCell>
        <mxCell id="PCMY5emXgMbDtx15MJKR-29" value="products" style="shape=table;html=1;whiteSpace=wrap;startSize=30;container=1;collapsible=0;childLayout=tableLayout;fixedRows=1;rowLines=0;fontStyle=1;align=center;" parent="1" vertex="1">
          <mxGeometry x="500" y="280" width="180" height="180" as="geometry" />
        </mxCell>
        <mxCell id="PCMY5emXgMbDtx15MJKR-30" value="" style="shape=partialRectangle;html=1;whiteSpace=wrap;collapsible=0;dropTarget=0;pointerEvents=0;fillColor=none;top=0;left=0;bottom=1;right=0;points=[[0,0.5],[1,0.5]];portConstraint=eastwest;" parent="PCMY5emXgMbDtx15MJKR-29" vertex="1">
          <mxGeometry y="30" width="180" height="30" as="geometry" />
        </mxCell>
        <mxCell id="PCMY5emXgMbDtx15MJKR-31" value="pk" style="shape=partialRectangle;html=1;whiteSpace=wrap;connectable=0;fillColor=none;top=0;left=0;bottom=0;right=0;overflow=hidden;" parent="PCMY5emXgMbDtx15MJKR-30" vertex="1">
          <mxGeometry width="23" height="30" as="geometry" />
        </mxCell>
        <mxCell id="PCMY5emXgMbDtx15MJKR-32" value="product_id" style="shape=partialRectangle;html=1;whiteSpace=wrap;connectable=0;fillColor=none;top=0;left=0;bottom=0;right=0;align=left;spacingLeft=6;overflow=hidden;" parent="PCMY5emXgMbDtx15MJKR-30" vertex="1">
          <mxGeometry x="23" width="87" height="30" as="geometry" />
        </mxCell>
        <mxCell id="PCMY5emXgMbDtx15MJKR-71" value="int" style="shape=partialRectangle;html=1;whiteSpace=wrap;connectable=0;fillColor=none;top=0;left=0;bottom=0;right=0;align=left;spacingLeft=6;overflow=hidden;" parent="PCMY5emXgMbDtx15MJKR-30" vertex="1">
          <mxGeometry x="110" width="70" height="30" as="geometry" />
        </mxCell>
        <mxCell id="PCMY5emXgMbDtx15MJKR-33" value="" style="shape=partialRectangle;html=1;whiteSpace=wrap;collapsible=0;dropTarget=0;pointerEvents=0;fillColor=none;top=0;left=0;bottom=0;right=0;points=[[0,0.5],[1,0.5]];portConstraint=eastwest;" parent="PCMY5emXgMbDtx15MJKR-29" vertex="1">
          <mxGeometry y="60" width="180" height="30" as="geometry" />
        </mxCell>
        <mxCell id="PCMY5emXgMbDtx15MJKR-34" value="" style="shape=partialRectangle;html=1;whiteSpace=wrap;connectable=0;fillColor=none;top=0;left=0;bottom=0;right=0;overflow=hidden;" parent="PCMY5emXgMbDtx15MJKR-33" vertex="1">
          <mxGeometry width="23" height="30" as="geometry" />
        </mxCell>
        <mxCell id="PCMY5emXgMbDtx15MJKR-35" value="product_name" style="shape=partialRectangle;html=1;whiteSpace=wrap;connectable=0;fillColor=none;top=0;left=0;bottom=0;right=0;align=left;spacingLeft=6;overflow=hidden;" parent="PCMY5emXgMbDtx15MJKR-33" vertex="1">
          <mxGeometry x="23" width="87" height="30" as="geometry" />
        </mxCell>
        <mxCell id="PCMY5emXgMbDtx15MJKR-72" value="&lt;span&gt;varchar(50)&lt;/span&gt;" style="shape=partialRectangle;html=1;whiteSpace=wrap;connectable=0;fillColor=none;top=0;left=0;bottom=0;right=0;align=left;spacingLeft=6;overflow=hidden;" parent="PCMY5emXgMbDtx15MJKR-33" vertex="1">
          <mxGeometry x="110" width="70" height="30" as="geometry" />
        </mxCell>
        <mxCell id="PCMY5emXgMbDtx15MJKR-36" value="" style="shape=partialRectangle;html=1;whiteSpace=wrap;collapsible=0;dropTarget=0;pointerEvents=0;fillColor=none;top=0;left=0;bottom=0;right=0;points=[[0,0.5],[1,0.5]];portConstraint=eastwest;" parent="PCMY5emXgMbDtx15MJKR-29" vertex="1">
          <mxGeometry y="90" width="180" height="30" as="geometry" />
        </mxCell>
        <mxCell id="PCMY5emXgMbDtx15MJKR-37" value="" style="shape=partialRectangle;html=1;whiteSpace=wrap;connectable=0;fillColor=none;top=0;left=0;bottom=0;right=0;overflow=hidden;" parent="PCMY5emXgMbDtx15MJKR-36" vertex="1">
          <mxGeometry width="23" height="30" as="geometry" />
        </mxCell>
        <mxCell id="PCMY5emXgMbDtx15MJKR-38" value="price" style="shape=partialRectangle;html=1;whiteSpace=wrap;connectable=0;fillColor=none;top=0;left=0;bottom=0;right=0;align=left;spacingLeft=6;overflow=hidden;" parent="PCMY5emXgMbDtx15MJKR-36" vertex="1">
          <mxGeometry x="23" width="87" height="30" as="geometry" />
        </mxCell>
        <mxCell id="PCMY5emXgMbDtx15MJKR-73" value="int" style="shape=partialRectangle;html=1;whiteSpace=wrap;connectable=0;fillColor=none;top=0;left=0;bottom=0;right=0;align=left;spacingLeft=6;overflow=hidden;" parent="PCMY5emXgMbDtx15MJKR-36" vertex="1">
          <mxGeometry x="110" width="70" height="30" as="geometry" />
        </mxCell>
        <mxCell id="PCMY5emXgMbDtx15MJKR-78" style="shape=partialRectangle;html=1;whiteSpace=wrap;collapsible=0;dropTarget=0;pointerEvents=0;fillColor=none;top=0;left=0;bottom=0;right=0;points=[[0,0.5],[1,0.5]];portConstraint=eastwest;" parent="PCMY5emXgMbDtx15MJKR-29" vertex="1">
          <mxGeometry y="120" width="180" height="30" as="geometry" />
        </mxCell>
        <mxCell id="PCMY5emXgMbDtx15MJKR-79" style="shape=partialRectangle;html=1;whiteSpace=wrap;connectable=0;fillColor=none;top=0;left=0;bottom=0;right=0;overflow=hidden;" parent="PCMY5emXgMbDtx15MJKR-78" vertex="1">
          <mxGeometry width="23" height="30" as="geometry" />
        </mxCell>
        <mxCell id="PCMY5emXgMbDtx15MJKR-80" value="stock" style="shape=partialRectangle;html=1;whiteSpace=wrap;connectable=0;fillColor=none;top=0;left=0;bottom=0;right=0;align=left;spacingLeft=6;overflow=hidden;" parent="PCMY5emXgMbDtx15MJKR-78" vertex="1">
          <mxGeometry x="23" width="87" height="30" as="geometry" />
        </mxCell>
        <mxCell id="PCMY5emXgMbDtx15MJKR-81" value="int" style="shape=partialRectangle;html=1;whiteSpace=wrap;connectable=0;fillColor=none;top=0;left=0;bottom=0;right=0;align=left;spacingLeft=6;overflow=hidden;" parent="PCMY5emXgMbDtx15MJKR-78" vertex="1">
          <mxGeometry x="110" width="70" height="30" as="geometry" />
        </mxCell>
        <mxCell id="PCMY5emXgMbDtx15MJKR-82" style="shape=partialRectangle;html=1;whiteSpace=wrap;collapsible=0;dropTarget=0;pointerEvents=0;fillColor=none;top=0;left=0;bottom=0;right=0;points=[[0,0.5],[1,0.5]];portConstraint=eastwest;" parent="PCMY5emXgMbDtx15MJKR-29" vertex="1">
          <mxGeometry y="150" width="180" height="30" as="geometry" />
        </mxCell>
        <mxCell id="PCMY5emXgMbDtx15MJKR-83" style="shape=partialRectangle;html=1;whiteSpace=wrap;connectable=0;fillColor=none;top=0;left=0;bottom=0;right=0;overflow=hidden;" parent="PCMY5emXgMbDtx15MJKR-82" vertex="1">
          <mxGeometry width="23" height="30" as="geometry" />
        </mxCell>
        <mxCell id="PCMY5emXgMbDtx15MJKR-84" style="shape=partialRectangle;html=1;whiteSpace=wrap;connectable=0;fillColor=none;top=0;left=0;bottom=0;right=0;align=left;spacingLeft=6;overflow=hidden;" parent="PCMY5emXgMbDtx15MJKR-82" vertex="1">
          <mxGeometry x="23" width="87" height="30" as="geometry" />
        </mxCell>
        <mxCell id="PCMY5emXgMbDtx15MJKR-85" style="shape=partialRectangle;html=1;whiteSpace=wrap;connectable=0;fillColor=none;top=0;left=0;bottom=0;right=0;align=left;spacingLeft=6;overflow=hidden;" parent="PCMY5emXgMbDtx15MJKR-82" vertex="1">
          <mxGeometry x="110" width="70" height="30" as="geometry" />
        </mxCell>
        <mxCell id="PCMY5emXgMbDtx15MJKR-39" value="" style="edgeStyle=entityRelationEdgeStyle;fontSize=12;html=1;endArrow=ERoneToMany;exitX=0.25;exitY=1;exitDx=0;exitDy=0;entryX=0;entryY=0.5;entryDx=0;entryDy=0;" parent="1" source="PCMY5emXgMbDtx15MJKR-19" target="PCMY5emXgMbDtx15MJKR-13" edge="1">
          <mxGeometry width="100" height="100" relative="1" as="geometry">
            <mxPoint x="370" y="460" as="sourcePoint" />
            <mxPoint x="470" y="360" as="targetPoint" />
          </mxGeometry>
        </mxCell>
        <mxCell id="PCMY5emXgMbDtx15MJKR-64" value="&lt;span&gt;varchar(50)&lt;/span&gt;" style="shape=partialRectangle;html=1;whiteSpace=wrap;connectable=0;fillColor=none;top=0;left=0;bottom=0;right=0;align=left;spacingLeft=6;overflow=hidden;" parent="1" vertex="1">
          <mxGeometry x="200" y="350" width="109" height="30" as="geometry" />
        </mxCell>
        <mxCell id="PCMY5emXgMbDtx15MJKR-87" value="product/orders" style="shape=table;startSize=20;container=1;collapsible=1;childLayout=tableLayout;fixedRows=1;rowLines=0;fontStyle=1;align=center;resizeLast=1;" parent="1" vertex="1">
          <mxGeometry x="600" y="540" width="220" height="160" as="geometry" />
        </mxCell>
        <mxCell id="Htn4DCsD8LEXtBYvQ5C5-1" style="shape=partialRectangle;collapsible=0;dropTarget=0;pointerEvents=0;fillColor=none;top=0;left=0;bottom=1;right=0;points=[[0,0.5],[1,0.5]];portConstraint=eastwest;" vertex="1" parent="PCMY5emXgMbDtx15MJKR-87">
          <mxGeometry y="20" width="220" height="30" as="geometry" />
        </mxCell>
        <mxCell id="Htn4DCsD8LEXtBYvQ5C5-2" value="pk" style="shape=partialRectangle;connectable=0;fillColor=none;top=0;left=0;bottom=0;right=0;fontStyle=1;overflow=hidden;" vertex="1" parent="Htn4DCsD8LEXtBYvQ5C5-1">
          <mxGeometry width="30" height="30" as="geometry" />
        </mxCell>
        <mxCell id="Htn4DCsD8LEXtBYvQ5C5-3" value="po_id" style="shape=partialRectangle;connectable=0;fillColor=none;top=0;left=0;bottom=0;right=0;align=left;spacingLeft=6;fontStyle=5;overflow=hidden;" vertex="1" parent="Htn4DCsD8LEXtBYvQ5C5-1">
          <mxGeometry x="30" width="150" height="30" as="geometry" />
        </mxCell>
        <mxCell id="Htn4DCsD8LEXtBYvQ5C5-4" value="int" style="shape=partialRectangle;connectable=0;fillColor=none;top=0;left=0;bottom=0;right=0;align=left;spacingLeft=6;fontStyle=5;overflow=hidden;" vertex="1" parent="Htn4DCsD8LEXtBYvQ5C5-1">
          <mxGeometry x="180" width="40" height="30" as="geometry" />
        </mxCell>
        <mxCell id="PCMY5emXgMbDtx15MJKR-88" value="" style="shape=partialRectangle;collapsible=0;dropTarget=0;pointerEvents=0;fillColor=none;top=0;left=0;bottom=1;right=0;points=[[0,0.5],[1,0.5]];portConstraint=eastwest;" parent="PCMY5emXgMbDtx15MJKR-87" vertex="1">
          <mxGeometry y="50" width="220" height="30" as="geometry" />
        </mxCell>
        <mxCell id="PCMY5emXgMbDtx15MJKR-89" value="fk" style="shape=partialRectangle;connectable=0;fillColor=none;top=0;left=0;bottom=0;right=0;fontStyle=1;overflow=hidden;" parent="PCMY5emXgMbDtx15MJKR-88" vertex="1">
          <mxGeometry width="30" height="30" as="geometry" />
        </mxCell>
        <mxCell id="PCMY5emXgMbDtx15MJKR-90" value="product_id" style="shape=partialRectangle;connectable=0;fillColor=none;top=0;left=0;bottom=0;right=0;align=left;spacingLeft=6;fontStyle=5;overflow=hidden;" parent="PCMY5emXgMbDtx15MJKR-88" vertex="1">
          <mxGeometry x="30" width="150" height="30" as="geometry" />
        </mxCell>
        <mxCell id="PCMY5emXgMbDtx15MJKR-105" value="int" style="shape=partialRectangle;connectable=0;fillColor=none;top=0;left=0;bottom=0;right=0;align=left;spacingLeft=6;fontStyle=5;overflow=hidden;" parent="PCMY5emXgMbDtx15MJKR-88" vertex="1">
          <mxGeometry x="180" width="40" height="30" as="geometry" />
        </mxCell>
        <mxCell id="PCMY5emXgMbDtx15MJKR-91" value="" style="shape=partialRectangle;collapsible=0;dropTarget=0;pointerEvents=0;fillColor=none;top=0;left=0;bottom=0;right=0;points=[[0,0.5],[1,0.5]];portConstraint=eastwest;" parent="PCMY5emXgMbDtx15MJKR-87" vertex="1">
          <mxGeometry y="80" width="220" height="30" as="geometry" />
        </mxCell>
        <mxCell id="PCMY5emXgMbDtx15MJKR-92" value="fk" style="shape=partialRectangle;connectable=0;fillColor=none;top=0;left=0;bottom=0;right=0;editable=1;overflow=hidden;" parent="PCMY5emXgMbDtx15MJKR-91" vertex="1">
          <mxGeometry width="30" height="30" as="geometry" />
        </mxCell>
        <mxCell id="PCMY5emXgMbDtx15MJKR-93" value="order_id" style="shape=partialRectangle;connectable=0;fillColor=none;top=0;left=0;bottom=0;right=0;align=left;spacingLeft=6;overflow=hidden;" parent="PCMY5emXgMbDtx15MJKR-91" vertex="1">
          <mxGeometry x="30" width="150" height="30" as="geometry" />
        </mxCell>
        <mxCell id="PCMY5emXgMbDtx15MJKR-106" value="int" style="shape=partialRectangle;connectable=0;fillColor=none;top=0;left=0;bottom=0;right=0;align=left;spacingLeft=6;overflow=hidden;" parent="PCMY5emXgMbDtx15MJKR-91" vertex="1">
          <mxGeometry x="180" width="40" height="30" as="geometry" />
        </mxCell>
        <mxCell id="PCMY5emXgMbDtx15MJKR-102" style="shape=partialRectangle;collapsible=0;dropTarget=0;pointerEvents=0;fillColor=none;top=0;left=0;bottom=0;right=0;points=[[0,0.5],[1,0.5]];portConstraint=eastwest;" parent="PCMY5emXgMbDtx15MJKR-87" vertex="1">
          <mxGeometry y="110" width="220" height="30" as="geometry" />
        </mxCell>
        <mxCell id="PCMY5emXgMbDtx15MJKR-103" style="shape=partialRectangle;connectable=0;fillColor=none;top=0;left=0;bottom=0;right=0;editable=1;overflow=hidden;" parent="PCMY5emXgMbDtx15MJKR-102" vertex="1">
          <mxGeometry width="30" height="30" as="geometry" />
        </mxCell>
        <mxCell id="PCMY5emXgMbDtx15MJKR-104" value="quantity" style="shape=partialRectangle;connectable=0;fillColor=none;top=0;left=0;bottom=0;right=0;align=left;spacingLeft=6;overflow=hidden;" parent="PCMY5emXgMbDtx15MJKR-102" vertex="1">
          <mxGeometry x="30" width="150" height="30" as="geometry" />
        </mxCell>
        <mxCell id="PCMY5emXgMbDtx15MJKR-107" value="int" style="shape=partialRectangle;connectable=0;fillColor=none;top=0;left=0;bottom=0;right=0;align=left;spacingLeft=6;overflow=hidden;" parent="PCMY5emXgMbDtx15MJKR-102" vertex="1">
          <mxGeometry x="180" width="40" height="30" as="geometry" />
        </mxCell>
        <mxCell id="PCMY5emXgMbDtx15MJKR-101" value="" style="edgeStyle=entityRelationEdgeStyle;fontSize=12;html=1;endArrow=ERoneToMany;exitX=1;exitY=0.5;exitDx=0;exitDy=0;entryX=0;entryY=0.5;entryDx=0;entryDy=0;" parent="1" source="PCMY5emXgMbDtx15MJKR-16" target="PCMY5emXgMbDtx15MJKR-91" edge="1">
          <mxGeometry width="100" height="100" relative="1" as="geometry">
            <mxPoint x="610" y="410" as="sourcePoint" />
            <mxPoint x="503" y="676" as="targetPoint" />
          </mxGeometry>
        </mxCell>
        <mxCell id="PCMY5emXgMbDtx15MJKR-100" value="" style="edgeStyle=entityRelationEdgeStyle;fontSize=12;html=1;endArrow=ERoneToMany;exitX=1;exitY=0.5;exitDx=0;exitDy=0;entryX=0.75;entryY=0;entryDx=0;entryDy=0;" parent="1" source="PCMY5emXgMbDtx15MJKR-82" target="PCMY5emXgMbDtx15MJKR-87" edge="1">
          <mxGeometry width="100" height="100" relative="1" as="geometry">
            <mxPoint x="560" y="320" as="sourcePoint" />
            <mxPoint x="660" y="220" as="targetPoint" />
          </mxGeometry>
        </mxCell>
      </root>
    </mxGraphModel>
  </diagram>
</mxfile>
